# xmcd
#
# Track frame offsets:
#	150
#	16167
#	36598
#	59547
#	76099
#	96873
#	118550
#	131981
#	155261
#	173755
#	192995
#	210097
#	228759
#	248853
#	265879
#	275936
#	285827
#	296225
#	306122
#
# Disc length: 4274 seconds
#
# Revision: 1
# Processed by: cddbd v1.5PL3 Copyright (c) Steve Scherf et al.
# Submitted via: CDex 1.50Beta5
#
DISCID=0d10b013
DTITLE=DENSTINY's Child+Mariah Carey+Babyface+Wham! - Love Christmas
DYEAR=2002
DGENRE=Pop
TTITLE0=Have Yourself A Merry Little Christmas
TTITLE1=Santa Claus Is Coming To Town
TTITLE2=Christmas Through Your Eyes
TTITLE3=Little Drummer Boy
TTITLE4=Feels Like Christmas
TTITLE5=This Is Christmas
TTITLE6=Winter Wonderland
TTITLE7=This Christmas
TTITLE8=All I Want For Christmas Is You
TTITLE9=Endless Christmas
TTITLE10=Silent Night
TTITLE11=This Is The Time(Duet With Wynonna)
TTITLE12=Last Christmas
TTITLE13=When A Child Is Born
TTITLE14=The White World Of Winter
TTITLE15=Sleigh Ride
TTITLE16=Let It Snow,Let It Snow,Let It Snow
TTITLE17=O Come All Ye Faithful
TTITLE18=The Christmas Song
EXTD=
EXTT0=
EXTT1=
EXTT2=
EXTT3=
EXTT4=
EXTT5=
EXTT6=
EXTT7=
EXTT8=
EXTT9=
EXTT10=
EXTT11=
EXTT12=
EXTT13=
EXTT14=
EXTT15=
EXTT16=
EXTT17=
EXTT18=
PLAYORDER=
